<svg id="fi_2514330" enable-background="new 0 0 512 512" height="512" viewBox="0 0 512 512" width="512" xmlns="http://www.w3.org/2000/svg"><g><g><path d="m61.18 40.291 13.036-13.235c12.388-12.577 29.428-19.468 47.076-19.037l227.138 5.54c18.035.44 34.39 10.692 42.647 26.732z" fill="#71aa52"></path><path d="m377.769 24.145h-300.464c-1.055.938-2.092 1.899-3.089 2.911l-13.036 13.235h329.897c-3.287-6.385-7.86-11.849-13.308-16.146z" fill="#68994b"></path><path d="m478.07 40.186-5.309-13.02c-3.188-7.818-12.109-11.571-19.927-8.384l-52.756 21.51h-351.996c-8.443 0-15.287 6.844-15.287 15.287v14.061c0 8.443 6.844 15.287 15.287 15.287l348.128-.004c8.331 0 16.583-1.617 24.298-4.762l49.177-20.047c7.818-3.189 11.572-12.111 8.385-19.928z" fill="#aee295"></path><path d="m476.575 36.521c-1.635 2.423-3.98 4.405-6.89 5.592l-49.177 20.047c-7.715 3.145-15.967 4.762-24.298 4.762l-348.128.003c-7.774 0-14.177-5.807-15.146-13.317-.083.646-.141 1.301-.141 1.97v14.061c0 8.443 6.844 15.287 15.287 15.287l348.128-.004c8.331 0 16.583-1.617 24.298-4.762l49.177-20.047c7.818-3.187 11.572-12.109 8.384-19.927z" fill="#98db7c"></path><path d="m336.112 504h-220.569c-10.384 0-19.041-7.945-19.929-18.291l-34.434-400.784h329.294l-34.434 400.784c-.888 10.346-9.545 18.291-19.928 18.291z" fill="#71aa52"></path><path d="m388.928 102.925 1.546-18h-329.294l1.547 18z" fill="#68994b"></path><path d="m330.373 298.589-38.627-65.48-31.499 18.559 27.643 46.862z" fill="#ffcb9d"></path><path d="m287.89 298.53 42.483.059-10.638-18.034-42.474-.044z" fill="#ffba7e"></path><path d="m142.142 334.988 76.024-.026.006-36.56-54.407.017z" fill="#ffcb9d"></path><path d="m204.234 155.562-37.749 65.99 31.725 18.169 27.017-47.226z" fill="#ffcb9d"></path><path d="m263.234 298.496.013-9.377-24.695 27.609 24.619 27.707.012-9.377 46.291.063 20.899-36.532z" fill="#ffe9c8"></path><path d="m176.314 277.196 8.072 4.773-11.245-35.294-36.37 7.139 8.072 4.773-23.561 39.846 20.86 36.555z" fill="#ffe9c8"></path><path d="m181.768 298.414-18.003.005-21.623 36.569 18.003-.006z" fill="#ffba7e"></path><path d="m237.411 213.931-8.153 4.634 36.216 7.776 11.875-35.11-8.153 4.634-22.874-40.245-42.088-.058z" fill="#ffe9c8"></path><path d="m195.205 171.345 20.993 36.934 9.029-15.784-20.978-36.908h-.029z" fill="#ffba7e"></path><ellipse cx="110.968" cy="443.902" fill="#8c808a" rx="60.098" ry="60.098" transform="matrix(.995 -.097 .097 .995 -42.703 12.917)"></ellipse><path d="m110.967 486c-30.132 0-55.081-22.177-59.425-51.098-.441 2.936-.673 5.941-.673 9 0 33.191 26.907 60.098 60.098 60.098 33.192 0 60.098-26.907 60.098-60.098 0-3.059-.232-6.064-.673-9-4.343 28.921-29.292 51.098-59.425 51.098z" fill="#7b7179"></path><circle cx="110.968" cy="443.902" fill="#ffc265" r="23.811"></circle><path d="m110.967 449.713c-9.965 0-18.495-6.124-22.046-14.811-1.135 2.777-1.765 5.814-1.765 9 0 13.151 10.661 23.811 23.811 23.811 13.151 0 23.812-10.661 23.812-23.811 0-3.186-.63-6.223-1.765-9-3.551 8.687-12.081 14.811-22.047 14.811z" fill="#ffb541"></path></g><g><path d="m79.313 444.269c0 17.299 14.073 31.372 31.372 31.372s31.373-14.073 31.373-31.372-14.074-31.373-31.373-31.373c-17.299.001-31.372 14.075-31.372 31.373zm47.716 0c0 9.012-7.332 16.343-16.343 16.343-9.012 0-16.343-7.331-16.343-16.343s7.331-16.343 16.343-16.343c9.011 0 16.343 7.332 16.343 16.343z"></path><path d="m485.465 36.926-5.319-13.045c-4.753-11.657-18.104-17.274-29.761-12.522l-51.495 20.995h-3.188c-10.079-16.166-27.649-26.312-46.906-26.782l-161.594-3.941c-4.169-.124-7.595 3.181-7.696 7.329-.101 4.149 3.18 7.595 7.329 7.696l161.595 3.941c10.674.261 20.64 4.567 28.082 11.757h-297.761l.465-.473c10.912-11.079 26.09-17.208 41.631-16.836l35.927.876c4.161.111 7.595-3.18 7.696-7.329s-3.18-7.595-7.329-7.696l-35.927-.876c-19.687-.481-38.89 7.288-52.705 21.313l-10.854 11.02h-9.978c-12.589 0-22.831 10.242-22.831 22.831v14.089c0 12.589 10.242 22.831 22.831 22.831h6.227l25.115 292.317c-21.431 11.386-36.064 33.935-36.064 59.847 0 37.347 30.384 67.73 67.73 67.73h92.386c4.15 0 7.515-3.365 7.515-7.515s-3.365-7.515-7.515-7.515h-49.908c15.387-12.426 25.253-31.429 25.253-52.701 0-37.347-30.384-67.731-67.731-67.731-5.895 0-11.615.761-17.071 2.183l-24.625-286.614 226.439-.003c4.151 0 7.515-3.365 7.515-7.515s-3.365-7.515-7.515-7.515l-247.752.003c-4.302 0-7.802-3.5-7.802-7.802v-14.088c0-4.302 3.5-7.802 7.802-7.802h352.686c.973 0 1.936-.189 2.838-.556l52.858-21.551c3.985-1.623 8.547.295 10.17 4.279l5.319 13.045c1.624 3.983-.294 8.546-4.278 10.17l-49.274 20.086c-6.863 2.797-14.1 4.216-21.509 4.216l-71 .001c-4.151 0-7.515 3.365-7.515 7.515s3.365 7.515 7.515 7.515h57.066l-33.8 393.415c-.561 6.53-5.927 11.455-12.481 11.455h-103.141c-4.15 0-7.515 3.365-7.515 7.515s3.364 7.515 7.515 7.515h103.14c14.419 0 26.222-10.833 27.456-25.198l33.914-394.732c8.961-.142 17.713-1.91 26.029-5.3l49.275-20.087c11.656-4.752 17.273-18.103 12.521-29.76zm-322.078 407.343c0 29.06-23.642 52.701-52.702 52.701s-52.701-23.641-52.701-52.701c0-21.56 13.02-40.128 31.605-48.281.279-.105.552-.221.813-.356 6.247-2.615 13.098-4.065 20.283-4.065 29.06.001 52.702 23.643 52.702 52.702z"></path><path d="m337.793 296.797c-.154-.47-.205-.843-.8-1.943l-38.703-65.608c-2.109-3.574-6.713-4.762-10.288-2.656l-31.56 18.596c-1.718 1.012-2.963 2.665-3.461 4.596-.499 1.93-.209 3.979.803 5.697l21.001 35.603-4.012-.006.003-1.881c.194-6.413-8.466-10.18-13.116-5.02l-24.743 27.663c-2.545 2.846-2.552 7.147-.016 10.001l24.667 27.761c3.337 4.178 12.631 2.924 13.132-4.981l.003-1.881 38.866.053h.011c2.695 0 5.184-1.444 6.522-3.783l20.939-36.604c.636-1.886 1.39-1.789.752-5.607zm-67.243-42.48 18.612-10.966 28.191 47.788-25.102-.034zm34.676 73.438-42.016-.058c-.004 0-.007 0-.011 0-1.417 0-2.792.4-3.975 1.137l-10.637-11.971 10.662-11.921c1.156.728 2.524 1.15 3.989 1.152l54.336.075z"></path><path d="m223.413 293.171c-1.001-.991-3.014-2.138-5.316-2.201l-41.335.013 2.042-3.453 1.619.957c4.687 2.885 12.857-1.204 10.985-8.75l-11.267-35.363c-1.159-3.637-4.859-5.832-8.607-5.092l-36.441 7.153c-5.421.964-8.798 9.456-2.378 13.842l1.619.957-19.783 33.456c-1.374 2.323-1.396 5.205-.058 7.549l20.901 36.626c1.214 1.877 2.992 3.664 6.529 3.79l76.173-.026c4.149-.001 7.512-3.365 7.512-7.513l.006-36.632c.001-1.992-.791-3.904-2.201-5.313zm-72.317-30.754c.745-1.26 1.08-2.649 1.044-4.011l15.714-3.084 4.856 15.24c-1.244.643-2.294 1.627-3.019 2.851l-27.655 46.771-12.326-21.6zm59.485 65.187-55.483.019 12.777-21.608 42.71-.014z"></path><path d="m282.176 185.308c-2.405-1.985-5.786-2.277-8.497-.738l-1.635.929-19.206-33.79c-1.334-2.346-3.824-3.797-6.523-3.801l-42.17-.059c-1.517-.065-5.182 1.21-6.533 3.783l-37.823 66.119c-2.06 3.601-.812 8.19 2.788 10.252l31.788 18.205c1.988 1.402 7.465 1.668 10.258-2.79l20.525-35.879 1.982 3.487-1.635.929c-2.711 1.54-4.188 4.594-3.714 7.676s2.801 5.55 5.849 6.205l36.288 7.792c2.909.566 6.589-.596 8.696-4.94l11.897-35.179c.999-2.952.07-6.216-2.335-8.201zm-86.866 44.124-18.746-10.736 27.55-48.16 12.404 21.823zm65.212-11.902-15.638-3.358c.06-1.399-.272-2.799-.975-4.036l-26.849-47.238 24.869.035 20.762 36.527c.702 1.235 1.733 2.235 2.963 2.899z"></path></g></g></svg>
